<mxfile host="app.diagrams.net" modified="2024-04-14T10:50:39.955Z" agent="Mozilla/5.0 (Windows NT 10.0; Win64; x64) AppleWebKit/537.36 (KHTML, like Gecko) Chrome/122.0.0.0 Safari/537.36 OPR/108.0.0.0" etag="jiaLjpti2SlZIE9tsmdt" version="24.2.5" type="github">
  <diagram name="Page-1" id="x1DN1nLivGBnPnscxvWS">
    <mxGraphModel dx="1800" dy="870" grid="1" gridSize="10" guides="1" tooltips="1" connect="1" arrows="1" fold="1" page="1" pageScale="1" pageWidth="827" pageHeight="1169" math="0" shadow="0">
      <root>
        <mxCell id="0" />
        <mxCell id="1" parent="0" />
        <mxCell id="pR162YDgCy7yolBOsbA_-1" value="LandLord" style="shape=umlActor;verticalLabelPosition=bottom;verticalAlign=top;html=1;" parent="1" vertex="1">
          <mxGeometry x="30" y="430" width="30" height="60" as="geometry" />
        </mxCell>
        <mxCell id="pR162YDgCy7yolBOsbA_-2" value="frame" style="shape=umlFrame;whiteSpace=wrap;html=1;pointerEvents=0;" parent="1" vertex="1">
          <mxGeometry x="185" y="90" width="435" height="1240" as="geometry" />
        </mxCell>
        <mxCell id="pR162YDgCy7yolBOsbA_-3" value="Sign up" style="ellipse;whiteSpace=wrap;html=1;" parent="1" vertex="1">
          <mxGeometry x="270" y="145" width="140" height="70" as="geometry" />
        </mxCell>
        <mxCell id="is5QXzpmRjvDhKgGf_G8-1" value="Login" style="ellipse;whiteSpace=wrap;html=1;" vertex="1" parent="1">
          <mxGeometry x="270" y="250" width="150" height="80" as="geometry" />
        </mxCell>
        <mxCell id="is5QXzpmRjvDhKgGf_G8-2" value="Apply to list property" style="ellipse;whiteSpace=wrap;html=1;" vertex="1" parent="1">
          <mxGeometry x="267.5" y="380" width="155" height="80" as="geometry" />
        </mxCell>
        <mxCell id="is5QXzpmRjvDhKgGf_G8-3" value="Upload supporting documents" style="ellipse;whiteSpace=wrap;html=1;" vertex="1" parent="1">
          <mxGeometry x="262.5" y="505" width="165" height="80" as="geometry" />
        </mxCell>
        <mxCell id="is5QXzpmRjvDhKgGf_G8-4" value="View application status&amp;nbsp;" style="ellipse;whiteSpace=wrap;html=1;" vertex="1" parent="1">
          <mxGeometry x="252.5" y="630" width="175" height="80" as="geometry" />
        </mxCell>
        <mxCell id="is5QXzpmRjvDhKgGf_G8-5" value="View received applications" style="ellipse;whiteSpace=wrap;html=1;" vertex="1" parent="1">
          <mxGeometry x="247.5" y="760" width="180" height="80" as="geometry" />
        </mxCell>
        <mxCell id="is5QXzpmRjvDhKgGf_G8-6" value="selects student application to view" style="ellipse;whiteSpace=wrap;html=1;" vertex="1" parent="1">
          <mxGeometry x="252.5" y="880" width="165" height="80" as="geometry" />
        </mxCell>
        <mxCell id="is5QXzpmRjvDhKgGf_G8-7" value="approve/reject the application" style="ellipse;whiteSpace=wrap;html=1;" vertex="1" parent="1">
          <mxGeometry x="285" y="1010" width="120" height="80" as="geometry" />
        </mxCell>
        <mxCell id="is5QXzpmRjvDhKgGf_G8-8" value="Manage Account" style="ellipse;whiteSpace=wrap;html=1;" vertex="1" parent="1">
          <mxGeometry x="285" y="1169" width="120" height="80" as="geometry" />
        </mxCell>
        <mxCell id="is5QXzpmRjvDhKgGf_G8-13" value="" style="endArrow=classic;html=1;rounded=0;exitX=0.573;exitY=0.333;exitDx=0;exitDy=0;exitPerimeter=0;" edge="1" parent="1" source="pR162YDgCy7yolBOsbA_-1" target="is5QXzpmRjvDhKgGf_G8-1">
          <mxGeometry width="50" height="50" relative="1" as="geometry">
            <mxPoint x="30" y="440" as="sourcePoint" />
            <mxPoint x="80" y="390" as="targetPoint" />
          </mxGeometry>
        </mxCell>
        <mxCell id="is5QXzpmRjvDhKgGf_G8-14" value="" style="endArrow=classic;html=1;rounded=0;exitX=0.84;exitY=0.027;exitDx=0;exitDy=0;exitPerimeter=0;" edge="1" parent="1" source="pR162YDgCy7yolBOsbA_-1" target="pR162YDgCy7yolBOsbA_-3">
          <mxGeometry width="50" height="50" relative="1" as="geometry">
            <mxPoint x="60" y="420" as="sourcePoint" />
            <mxPoint x="80" y="390" as="targetPoint" />
          </mxGeometry>
        </mxCell>
        <mxCell id="is5QXzpmRjvDhKgGf_G8-15" value="" style="endArrow=classic;html=1;rounded=0;exitX=0.76;exitY=0.36;exitDx=0;exitDy=0;exitPerimeter=0;" edge="1" parent="1" source="pR162YDgCy7yolBOsbA_-1" target="is5QXzpmRjvDhKgGf_G8-2">
          <mxGeometry width="50" height="50" relative="1" as="geometry">
            <mxPoint x="30" y="440" as="sourcePoint" />
            <mxPoint x="80" y="390" as="targetPoint" />
          </mxGeometry>
        </mxCell>
        <mxCell id="is5QXzpmRjvDhKgGf_G8-16" value="" style="endArrow=classic;html=1;rounded=0;entryX=0.014;entryY=0.413;entryDx=0;entryDy=0;entryPerimeter=0;" edge="1" parent="1" source="pR162YDgCy7yolBOsbA_-1" target="is5QXzpmRjvDhKgGf_G8-3">
          <mxGeometry width="50" height="50" relative="1" as="geometry">
            <mxPoint x="30" y="620" as="sourcePoint" />
            <mxPoint x="80" y="570" as="targetPoint" />
          </mxGeometry>
        </mxCell>
        <mxCell id="is5QXzpmRjvDhKgGf_G8-17" value="" style="endArrow=classic;html=1;rounded=0;" edge="1" parent="1" source="pR162YDgCy7yolBOsbA_-1" target="is5QXzpmRjvDhKgGf_G8-4">
          <mxGeometry width="50" height="50" relative="1" as="geometry">
            <mxPoint x="30" y="620" as="sourcePoint" />
            <mxPoint x="80" y="570" as="targetPoint" />
          </mxGeometry>
        </mxCell>
        <mxCell id="is5QXzpmRjvDhKgGf_G8-18" value="" style="endArrow=classic;html=1;rounded=0;" edge="1" parent="1" source="pR162YDgCy7yolBOsbA_-1" target="is5QXzpmRjvDhKgGf_G8-5">
          <mxGeometry width="50" height="50" relative="1" as="geometry">
            <mxPoint x="30" y="810" as="sourcePoint" />
            <mxPoint x="80" y="760" as="targetPoint" />
          </mxGeometry>
        </mxCell>
        <mxCell id="is5QXzpmRjvDhKgGf_G8-19" value="" style="endArrow=classic;html=1;rounded=0;" edge="1" parent="1" source="pR162YDgCy7yolBOsbA_-1" target="is5QXzpmRjvDhKgGf_G8-6">
          <mxGeometry width="50" height="50" relative="1" as="geometry">
            <mxPoint x="30" y="870" as="sourcePoint" />
            <mxPoint x="80" y="820" as="targetPoint" />
          </mxGeometry>
        </mxCell>
        <mxCell id="is5QXzpmRjvDhKgGf_G8-20" value="" style="endArrow=classic;html=1;rounded=0;entryX=0.038;entryY=0.31;entryDx=0;entryDy=0;entryPerimeter=0;" edge="1" parent="1" source="pR162YDgCy7yolBOsbA_-1" target="is5QXzpmRjvDhKgGf_G8-7">
          <mxGeometry width="50" height="50" relative="1" as="geometry">
            <mxPoint x="90" y="870" as="sourcePoint" />
            <mxPoint x="140" y="820" as="targetPoint" />
          </mxGeometry>
        </mxCell>
        <mxCell id="is5QXzpmRjvDhKgGf_G8-21" value="" style="endArrow=classic;html=1;rounded=0;entryX=0.025;entryY=0.383;entryDx=0;entryDy=0;entryPerimeter=0;" edge="1" parent="1" source="pR162YDgCy7yolBOsbA_-1" target="is5QXzpmRjvDhKgGf_G8-8">
          <mxGeometry width="50" height="50" relative="1" as="geometry">
            <mxPoint x="70" y="700" as="sourcePoint" />
            <mxPoint x="140" y="1090" as="targetPoint" />
          </mxGeometry>
        </mxCell>
        <mxCell id="is5QXzpmRjvDhKgGf_G8-23" value="" style="endArrow=none;dashed=1;html=1;rounded=0;" edge="1" parent="1" source="is5QXzpmRjvDhKgGf_G8-8" target="is5QXzpmRjvDhKgGf_G8-24">
          <mxGeometry width="50" height="50" relative="1" as="geometry">
            <mxPoint x="410" y="1200" as="sourcePoint" />
            <mxPoint x="460" y="1150" as="targetPoint" />
          </mxGeometry>
        </mxCell>
        <mxCell id="is5QXzpmRjvDhKgGf_G8-24" value="upload recent property images" style="ellipse;whiteSpace=wrap;html=1;" vertex="1" parent="1">
          <mxGeometry x="470" y="1110" width="120" height="80" as="geometry" />
        </mxCell>
        <mxCell id="is5QXzpmRjvDhKgGf_G8-25" value="edit profile" style="ellipse;whiteSpace=wrap;html=1;" vertex="1" parent="1">
          <mxGeometry x="470" y="1230" width="120" height="80" as="geometry" />
        </mxCell>
        <mxCell id="is5QXzpmRjvDhKgGf_G8-26" value="" style="endArrow=none;dashed=1;html=1;rounded=0;" edge="1" parent="1" source="is5QXzpmRjvDhKgGf_G8-8" target="is5QXzpmRjvDhKgGf_G8-25">
          <mxGeometry width="50" height="50" relative="1" as="geometry">
            <mxPoint x="405" y="1260" as="sourcePoint" />
            <mxPoint x="455" y="1210" as="targetPoint" />
          </mxGeometry>
        </mxCell>
      </root>
    </mxGraphModel>
  </diagram>
</mxfile>
